<svg id="icons" enable-background="new 0 0 64 64" height="512" viewBox="0 0 64 64" width="512" xmlns="http://www.w3.org/2000/svg"><path d="m1 62.998c-.391-.391-.391-1.023 0-1.414l27.033-27.033c.391-.391 1.023-.391 1.414 0 .391.393.391 1.023 0 1.416l-27.033 27.031c-.391.393-1.023.393-1.414 0z" fill="#ccd1d9"/><path d="m50.439 21.336c.59.59.59 1.539 0 2.129-.58.58-1.531.578-2.119 0l-1.064-1.063-5.659-5.66-1.052-1.061c-.59-.59-.591-1.541 0-2.123.58-.588 1.53-.588 2.12.002l1.05 1.064h.01l5.65 5.658.01.002z" fill="#f5f7fa"/><path d="m36.528 33.133v.01l-.711-.711v-.01l-4.251-4.242-.7-.698v-.007l10.731-10.733 5.659 5.66z" fill="#ccd1d9"/><path d="m30.158 26.775c.39.391.865.865 1.059 1.057.191.191.032.668-.356 1.057l-3.538 3.547c-.389.391-1.025 1.027-1.414 1.416l-2.824 2.824c-.389.389-1.025.389-1.414 0l-5.656-5.656c-.389-.389-.389-1.025 0-1.414l7.777-7.785c.388-.391 1.024-.391 1.413-.002z" fill="#5d9cec"/><path d="m53.607 16.053-4.222 4.232-.01-.002-5.65-5.658 4.222-4.232z" fill="#ccd1d9"/><path d="m56.139 13.525c.389.389.389 1.025 0 1.414l-1.115 1.115c-.389.389-1.025.389-1.414 0l-5.665-5.668c-.389-.389-.389-1.025 0-1.414l1.115-1.111c.389-.389 1.025-.389 1.414 0z" fill="#e6e9ed"/><path d="m63.001 9.484c.389.391.389 1.027 0 1.416l-4.745 4.744c-.389.389-1.024.389-1.412.002-.388-.389-.705-.707-.705-.711-.001-.002-.318-.322-.707-.711l-5.654-5.656c-.39-.389-.71-.707-.713-.707s-.322-.316-.71-.705-.386-1.023.003-1.412l4.743-4.744c.389-.389 1.025-.389 1.414 0z" fill="#f5f7fa"/><path d="m42.178 38.795c.389.389.39 1.025 0 1.414l-7.785 7.777c-.389.389-1.025.389-1.414-.002l-5.653-5.652c-.39-.389-.39-1.025 0-1.414l2.826-2.828c.389-.389 1.025-1.025 1.415-1.412l3.543-3.539c.39-.389.868-.547 1.063-.352s.674.674 1.063 1.063z" fill="#5d9cec"/><path d="m35.817 32.422v.01l-4.959 4.951-2.121-2.121-2.122-2.117 4.951-4.965z" fill="#e6e9ed"/><g fill="#5d9cec"><path d="m30.365 27.682h.996v.996h-.996z" transform="matrix(-.707 -.708 .708 -.707 32.731 69.93)"/><path d="m35.321 32.637h.994v.995h-.994z" transform="matrix(-.707 -.707 .707 -.707 37.715 81.892)"/></g></svg>